<svg width="173" height="173" viewBox="0 0 173 173" fill="none" xmlns="http://www.w3.org/2000/svg">
<path d="M122.542 96.5913V118.216C122.542 147.05 111.008 158.583 82.1748 158.583H54.7832C25.9498 158.583 14.4165 147.05 14.4165 118.216V90.8247C14.4165 61.9913 25.9498 50.458 54.7832 50.458H76.4082" stroke="#91949A" stroke-width="5" stroke-linecap="round" stroke-linejoin="round"/>
<path d="M122.542 96.5913H99.4749C82.1749 96.5913 76.4082 90.8247 76.4082 73.5247V50.458L122.542 96.5913Z" stroke="#91949A" stroke-width="5" stroke-linecap="round" stroke-linejoin="round"/>
<path d="M83.6167 14.417H112.45" stroke="#91949A" stroke-width="5" stroke-linecap="round" stroke-linejoin="round"/>
<path d="M50.4585 36.042C50.4585 24.0762 60.1177 14.417 72.0835 14.417H90.9693" stroke="#91949A" stroke-width="5" stroke-linecap="round" stroke-linejoin="round"/>
<path d="M158.584 57.667V102.287C158.584 113.459 149.501 122.542 138.328 122.542" stroke="#91949A" stroke-width="5" stroke-linecap="round" stroke-linejoin="round"/>
<path d="M158.583 57.667H136.958C120.74 57.667 115.333 52.2607 115.333 36.042V14.417L158.583 57.667Z" stroke="#91949A" stroke-width="5" stroke-linecap="round" stroke-linejoin="round"/>
</svg>
