<svg width="78" height="90" viewBox="0 0 78 90" fill="none" xmlns="http://www.w3.org/2000/svg">
<rect x="33.6636" y="13" width="50.6448" height="59.3268" rx="10" transform="rotate(30 33.6636 13)" fill="#042673"/>
<rect x="31.6636" y="6" width="50.6448" height="59.3268" rx="10" transform="rotate(30 31.6636 6)" fill="#0181BC"/>
<path fill-rule="evenodd" clip-rule="evenodd" d="M24.9742 8.15669C24.8664 8.32045 24.7628 8.48832 24.6636 8.66026L5.00017 42.7183C2.23875 47.5012 3.87751 53.6171 8.66044 56.3785L35.1996 71.7009C39.9826 74.4624 46.0985 72.8236 48.8599 68.0407L68.5233 33.9827C71.2847 29.1997 69.6459 23.0838 64.863 20.3224L38.3238 5C37.8006 4.69789 37.2613 4.44844 36.7123 4.25002L24.9742 8.15669Z" fill="#00B4D8"/>
<path fill-rule="evenodd" clip-rule="evenodd" d="M35.9422 4.52012C36.2293 4.42457 36.5 4.27707 36.7428 4.08722L36.9252 4.19249L33.4639 10.1879C32.7337 11.4527 31.2318 11.9526 30.1093 11.3045L24.9448 8.323C24.9088 8.30223 24.8987 8.25242 24.9224 8.21199C24.9336 8.19283 24.951 8.17836 24.971 8.17173L35.9422 4.52012Z" fill="#90E0EF"/>
</svg>
