<svg width="118" height="133" viewBox="0 0 118 133" fill="none" xmlns="http://www.w3.org/2000/svg">
<g filter="url(#filter0_d_1513_2330)">
<path fill-rule="evenodd" clip-rule="evenodd" d="M49.0276 24.0758L25.0692 65.573C24.2408 67.0079 24.7324 68.8427 26.1673 69.6711L65.7258 92.5102C67.1607 93.3387 68.9955 92.847 69.8239 91.4122L97.0926 44.1814C97.921 42.7465 97.4294 40.9117 95.9945 40.0833L61.2329 20.0137L49.0276 24.0758Z" fill="#03045E"/>
<path fill-rule="evenodd" clip-rule="evenodd" d="M60.2652 20.3497C60.552 20.2542 60.8224 20.107 61.065 19.9174L61.2477 20.0229L57.6892 26.1866C56.9591 27.4513 55.4572 27.9512 54.3346 27.3031L49.0233 24.2368C48.9895 24.2173 48.9781 24.1727 48.9953 24.1336L49.0059 24.1152C49.0172 24.0998 49.0327 24.0882 49.05 24.0825L60.2652 20.3497Z" fill="#B7A5DC"/>
<rect x="55.1118" y="31.2559" width="33.96" height="2.95305" rx="1.47652" transform="rotate(30 55.1118 31.2559)" fill="white"/>
<rect x="51.1743" y="38.0762" width="33.96" height="2.95305" rx="1.47652" transform="rotate(30 51.1743 38.0762)" fill="white"/>
<rect x="39.1162" y="58.9619" width="2.95305" height="2.95305" rx="1.47652" transform="rotate(30 39.1162 58.9619)" fill="white"/>
<rect x="43.3784" y="61.4229" width="29.0383" height="2.95305" rx="1.47652" transform="rotate(30 43.3784 61.4229)" fill="white"/>
<rect x="41.8232" y="54.2734" width="2.95305" height="2.95305" rx="1.47652" transform="rotate(30 41.8232 54.2734)" fill="white"/>
<rect x="46.0854" y="56.7344" width="29.0383" height="2.95305" rx="1.47652" transform="rotate(30 46.0854 56.7344)" fill="white"/>
<rect x="44.5298" y="49.584" width="2.95305" height="2.95305" rx="1.47652" transform="rotate(30 44.5298 49.584)" fill="white"/>
<rect x="48.792" y="52.0449" width="29.0383" height="2.95305" rx="1.47652" transform="rotate(30 48.792 52.0449)" fill="white"/>
</g>
<g filter="url(#filter1_d_1513_2330)">
<path fill-rule="evenodd" clip-rule="evenodd" d="M47.0164 16.338C46.32 16.5698 45.7327 17.0488 45.3657 17.6845L21.9769 58.1951C21.1485 59.63 21.6401 61.4647 23.075 62.2932L62.6335 85.1323C64.0684 85.9607 65.9032 85.4691 66.7316 84.0342L94.0003 36.8034C94.8287 35.3686 94.3371 33.5338 92.9022 32.7054L59.3084 13.3099C58.5656 12.8811 57.6748 12.7907 56.861 13.0615L47.0164 16.338Z" fill="#0077B6"/>
<path fill-rule="evenodd" clip-rule="evenodd" d="M57.1735 12.9721C57.4341 12.8854 57.6811 12.7559 57.9061 12.5908C57.9475 12.5604 58.0029 12.5563 58.0473 12.582V12.582C58.1075 12.6167 58.1281 12.6937 58.0933 12.7539L54.5976 18.809C53.8674 20.0737 52.3655 20.5736 51.243 19.9256L45.9316 16.8593C45.8981 16.8399 45.8866 16.7958 45.9033 16.7569L45.9149 16.7368C45.9261 16.7218 45.9413 16.7106 45.9583 16.7049L57.1735 12.9721Z" fill="#B7A5DC"/>
<rect x="52.0195" y="23.8779" width="33.96" height="2.95305" rx="1.47652" transform="rotate(30 52.0195 23.8779)" fill="white"/>
<rect x="48.082" y="30.6982" width="33.96" height="2.95305" rx="1.47652" transform="rotate(30 48.082 30.6982)" fill="white"/>
<rect x="36.0239" y="51.584" width="2.95305" height="2.95305" rx="1.47652" transform="rotate(30 36.0239 51.584)" fill="white"/>
<rect x="40.2861" y="54.0449" width="29.0383" height="2.95305" rx="1.47652" transform="rotate(30 40.2861 54.0449)" fill="white"/>
<rect x="38.731" y="46.8955" width="2.95305" height="2.95305" rx="1.47652" transform="rotate(30 38.731 46.8955)" fill="white"/>
<rect x="42.9932" y="49.3564" width="29.0383" height="2.95305" rx="1.47652" transform="rotate(30 42.9932 49.3564)" fill="white"/>
<rect x="41.4375" y="42.2061" width="2.95305" height="2.95305" rx="1.47652" transform="rotate(30 41.4375 42.2061)" fill="white"/>
<rect x="45.6997" y="44.667" width="29.0383" height="2.95305" rx="1.47652" transform="rotate(30 45.6997 44.667)" fill="white"/>
</g>
<g filter="url(#filter2_d_1513_2330)">
<path fill-rule="evenodd" clip-rule="evenodd" d="M45.5393 7.97186C44.8429 8.20364 44.2556 8.68269 43.8886 9.31834L20.4998 49.8289C19.6714 51.2637 20.163 53.0985 21.5979 53.9269L61.1565 76.7661C62.5914 77.5945 64.4261 77.1029 65.2545 75.668L92.5233 28.4372C93.3517 27.0023 92.8601 25.1676 91.4252 24.3391L57.8314 4.94376C57.0886 4.51492 56.1978 4.4245 55.384 4.69535L45.5393 7.97186Z" fill="#00B4D8"/>
<path fill-rule="evenodd" clip-rule="evenodd" d="M55.6965 4.60569C55.9569 4.519 56.2039 4.38954 56.4288 4.22447C56.4702 4.19411 56.5256 4.19 56.5701 4.21566V4.21566C56.6303 4.25042 56.6509 4.32741 56.6161 4.38761L53.1205 10.4426C52.3903 11.7073 50.8884 12.2072 49.7659 11.5591L44.4545 8.49285C44.4213 8.47366 44.4097 8.4302 44.4257 8.39154L44.4385 8.36944C44.4496 8.35493 44.4646 8.34403 44.4812 8.33849L55.6965 4.60569Z" fill="#90E0EF"/>
<rect x="50.5425" y="15.5117" width="33.96" height="2.95305" rx="1" transform="rotate(30 50.5425 15.5117)" fill="#CAF0F8"/>
<rect x="46.6055" y="22.3311" width="33.96" height="2.95305" rx="1" transform="rotate(30 46.6055 22.3311)" fill="#CAF0F8"/>
<rect x="34.5469" y="43.2178" width="2.95305" height="2.95305" rx="1" transform="rotate(30 34.5469 43.2178)" fill="#CAF0F8"/>
<rect x="38.8091" y="45.6787" width="29.0383" height="2.95305" rx="1" transform="rotate(30 38.8091 45.6787)" fill="#CAF0F8"/>
<rect x="37.2539" y="38.5283" width="2.95305" height="2.95305" rx="1" transform="rotate(30 37.2539 38.5283)" fill="#CAF0F8"/>
<rect x="41.5161" y="40.9893" width="29.0383" height="2.95305" rx="1" transform="rotate(30 41.5161 40.9893)" fill="#CAF0F8"/>
<rect x="39.9609" y="33.8398" width="2.95305" height="2.95305" rx="1" transform="rotate(30 39.9609 33.8398)" fill="#CAF0F8"/>
<rect x="44.2231" y="36.3008" width="29.0383" height="2.95305" rx="1" transform="rotate(30 44.2231 36.3008)" fill="#CAF0F8"/>
</g>
<defs>
<filter id="filter0_d_1513_2330" x="4.66699" y="19.917" width="112.828" height="112.996" filterUnits="userSpaceOnUse" color-interpolation-filters="sRGB">
<feFlood flood-opacity="0" result="BackgroundImageFix"/>
<feColorMatrix in="SourceAlpha" type="matrix" values="0 0 0 0 0 0 0 0 0 0 0 0 0 0 0 0 0 0 127 0" result="hardAlpha"/>
<feOffset dy="20"/>
<feGaussianBlur stdDeviation="10"/>
<feComposite in2="hardAlpha" operator="out"/>
<feColorMatrix type="matrix" values="0 0 0 0 0.0117647 0 0 0 0 0.0156863 0 0 0 0 0.368627 0 0 0 0.2 0"/>
<feBlend mode="normal" in2="BackgroundImageFix" result="effect1_dropShadow_1513_2330"/>
<feBlend mode="normal" in="SourceGraphic" in2="effect1_dropShadow_1513_2330" result="shape"/>
</filter>
<filter id="filter1_d_1513_2330" x="1.57471" y="12.5654" width="112.828" height="112.97" filterUnits="userSpaceOnUse" color-interpolation-filters="sRGB">
<feFlood flood-opacity="0" result="BackgroundImageFix"/>
<feColorMatrix in="SourceAlpha" type="matrix" values="0 0 0 0 0 0 0 0 0 0 0 0 0 0 0 0 0 0 127 0" result="hardAlpha"/>
<feOffset dy="20"/>
<feGaussianBlur stdDeviation="10"/>
<feComposite in2="hardAlpha" operator="out"/>
<feColorMatrix type="matrix" values="0 0 0 0 0.00392157 0 0 0 0 0.360784 0 0 0 0 0.54902 0 0 0 0.2 0"/>
<feBlend mode="normal" in2="BackgroundImageFix" result="effect1_dropShadow_1513_2330"/>
<feBlend mode="normal" in="SourceGraphic" in2="effect1_dropShadow_1513_2330" result="shape"/>
</filter>
<filter id="filter2_d_1513_2330" x="0.0976562" y="4.19922" width="112.828" height="112.97" filterUnits="userSpaceOnUse" color-interpolation-filters="sRGB">
<feFlood flood-opacity="0" result="BackgroundImageFix"/>
<feColorMatrix in="SourceAlpha" type="matrix" values="0 0 0 0 0 0 0 0 0 0 0 0 0 0 0 0 0 0 127 0" result="hardAlpha"/>
<feOffset dy="20"/>
<feGaussianBlur stdDeviation="10"/>
<feComposite in2="hardAlpha" operator="out"/>
<feColorMatrix type="matrix" values="0 0 0 0 0 0 0 0 0 0.705882 0 0 0 0 0.847059 0 0 0 0.2 0"/>
<feBlend mode="normal" in2="BackgroundImageFix" result="effect1_dropShadow_1513_2330"/>
<feBlend mode="normal" in="SourceGraphic" in2="effect1_dropShadow_1513_2330" result="shape"/>
</filter>
</defs>
</svg>
