<svg width="61" height="77" viewBox="0 0 61 77" fill="none" xmlns="http://www.w3.org/2000/svg">
<path fill-rule="evenodd" clip-rule="evenodd" d="M9 25.6206L9 73.5374C9 75.1943 10.3431 76.5374 12 76.5374L57.6783 76.5374C59.3351 76.5374 60.6783 75.1943 60.6783 73.5374L60.6783 19C60.6783 17.3431 59.3351 16 57.6783 16L17.539 16L9 25.6206Z" fill="#03045E"/>
<path fill-rule="evenodd" clip-rule="evenodd" d="M16.8686 16.7743C17.0692 16.5482 17.2297 16.2855 17.3451 16H17.556L17.5561 23.1171C17.5562 24.5775 16.5054 25.7614 15.2093 25.7614L9.07636 25.7616C9.03732 25.7616 9.00514 25.7286 9.00049 25.6861V25.6649C9.00257 25.6459 9.0102 25.6282 9.0223 25.6146L16.8686 16.7743Z" fill="#B7A5DC"/>
<rect x="17.8589" y="28.7969" width="33.96" height="2.95305" rx="1.47652" fill="white"/>
<rect x="17.8589" y="36.6719" width="33.96" height="2.95305" rx="1.47652" fill="white"/>
<rect x="17.8594" y="60.7881" width="2.95305" height="2.95305" rx="1.47652" fill="white"/>
<rect x="22.7812" y="60.7881" width="29.0383" height="2.95305" rx="1.47652" fill="white"/>
<rect x="17.8594" y="55.374" width="2.95305" height="2.95305" rx="1.47652" fill="white"/>
<rect x="22.7812" y="55.374" width="29.0383" height="2.95305" rx="1.47652" fill="white"/>
<rect x="17.8589" y="49.96" width="2.95305" height="2.95305" rx="1.47652" fill="white"/>
<rect x="22.7808" y="49.96" width="29.0383" height="2.95305" rx="1.47652" fill="white"/>
<path fill-rule="evenodd" clip-rule="evenodd" d="M5.90573 16.9988C5.4185 17.5478 5.14941 18.2563 5.14941 18.9903L5.14941 65.7679C5.14941 67.4247 6.49256 68.7679 8.14941 68.7679L53.8277 68.7679C55.4846 68.7679 56.8277 67.4248 56.8277 65.7679L56.8277 11.2305C56.8277 9.57361 55.4846 8.23047 53.8277 8.23047L15.0369 8.23047C14.1792 8.23047 13.3625 8.59757 12.7932 9.23902L5.90573 16.9988Z" fill="#0077B6"/>
<path fill-rule="evenodd" clip-rule="evenodd" d="M13.0188 9.00523C13.2011 8.79985 13.3503 8.56417 13.4626 8.3087C13.4832 8.26173 13.5291 8.23047 13.5804 8.23047V8.23047C13.6499 8.23047 13.7063 8.2868 13.7063 8.3563L13.7064 15.3481C13.7065 16.8085 12.6557 17.9923 11.3595 17.9924L5.22664 17.9926C5.1879 17.9926 5.15592 17.9601 5.15088 17.9181L5.15088 17.8949C5.15311 17.8763 5.16068 17.8589 5.17258 17.8455L13.0188 9.00523Z" fill="#B7A5DC"/>
<rect x="14.0088" y="21.0273" width="33.96" height="2.95305" rx="1.47652" fill="white"/>
<rect x="14.0088" y="28.9023" width="33.96" height="2.95305" rx="1.47652" fill="white"/>
<rect x="14.0088" y="53.0186" width="2.95305" height="2.95305" rx="1.47652" fill="white"/>
<rect x="18.9307" y="53.0186" width="29.0383" height="2.95305" rx="1.47652" fill="white"/>
<rect x="14.0088" y="47.6045" width="2.95305" height="2.95305" rx="1.47652" fill="white"/>
<rect x="18.9307" y="47.6045" width="29.0383" height="2.95305" rx="1.47652" fill="white"/>
<rect x="14.0088" y="42.1914" width="2.95305" height="2.95305" rx="1.47652" fill="white"/>
<rect x="18.9302" y="42.1914" width="29.0383" height="2.95305" rx="1.47652" fill="white"/>
<path fill-rule="evenodd" clip-rule="evenodd" d="M0.756313 8.76845C0.269082 9.31739 0 10.0259 0 10.7599L0 57.5374C0 59.1943 1.34314 60.5374 3 60.5374L48.6783 60.5374C50.3351 60.5374 51.6783 59.1943 51.6783 57.5374L51.6783 3C51.6783 1.34315 50.3351 0 48.6783 0L9.88752 0C9.02984 0 8.21317 0.367096 7.64383 1.00855L0.756313 8.76845Z" fill="#00B4D8"/>
<path fill-rule="evenodd" clip-rule="evenodd" d="M7.86977 0.774585C8.052 0.569262 8.20117 0.333649 8.31342 0.0782503C8.33406 0.0312669 8.38 0 8.43132 0V0C8.50084 0 8.5572 0.0563566 8.5572 0.125877L8.55735 7.11746C8.55738 8.57781 7.50664 9.76169 6.21046 9.76173L0.0775632 9.76192C0.0391827 9.76192 0.00743905 9.73006 0.00195312 9.68859L0.00195312 9.66306C0.0043577 9.64493 0.0118605 9.62801 0.0235046 9.61489L7.86977 0.774585Z" fill="#90E0EF"/>
<rect x="8.85938" y="12.7969" width="33.96" height="2.95305" rx="1" fill="#CAF0F8"/>
<rect x="8.85938" y="20.6709" width="33.96" height="2.95305" rx="1" fill="#CAF0F8"/>
<rect x="8.85938" y="44.7881" width="2.95305" height="2.95305" rx="1" fill="#CAF0F8"/>
<rect x="13.7812" y="44.7881" width="29.0383" height="2.95305" rx="1" fill="#CAF0F8"/>
<rect x="8.85938" y="39.374" width="2.95305" height="2.95305" rx="1" fill="#CAF0F8"/>
<rect x="13.7812" y="39.374" width="29.0383" height="2.95305" rx="1" fill="#CAF0F8"/>
<rect x="8.85938" y="33.96" width="2.95305" height="2.95305" rx="1" fill="#CAF0F8"/>
<rect x="13.7812" y="33.96" width="29.0383" height="2.95305" rx="1" fill="#CAF0F8"/>
</svg>
